<svg id="Layer_1" data-name="Layer 1" xmlns="http://www.w3.org/2000/svg" viewBox="0 0 439 439">
  <title>sea</title>
  <circle cx="219.5" cy="219.5" r="219.5"/>
  <g>
    <path d="M538.54,417.55c4.87-2,15.43-6.84,20.77-12.92,3.12-3.55,7.49-9.23,11.71-14.72,5.15-6.7,10.48-13.64,13.44-16.56,2.46-2.43,4.7-4.29,6.49-5.78,2.54-2.12,3.58-3,3.56-3.84s-1.09-1.11-2.45-1.4c-1.57-.34-3.53-.76-4.44-2.09-1.12-1.64,3.24-14.29,7.09-25.46,1.72-5,3.49-10.13,5-14.93,5.14-16.06,6.53-27.12.5-46.53l-.84-2.7c-5.4-17.33-9.67-31-8.65-49.27,1.07-19.14,10.11-31.5,12.3-31.72a11.78,11.78,0,0,1,1.21-.08c2.39,0,5.66,1.2,9.85,10.52,4.67,10.4,17,35.25,30.68,41.41,6.91,3.11,15.34,5.69,23.5,8.18,7.41,2.26,14.4,4.4,19.37,6.69,2.89,1.33,5.94,2.71,8.87,4,7.45,3.37,14.49,6.54,15.63,7.53a5.23,5.23,0,0,0,3.21,1.52s2.61.24,5.44.24a19.39,19.39,0,0,0,6.25-.72,31.7,31.7,0,0,0,5.57-3.74c4-3,9.42-7.08,13.95-8.25a19.58,19.58,0,0,1,4.89-.66c4.63,0,7.1,1.91,7.44,3.68.29,1.53.38,2.69-.1,3.39a3.12,3.12,0,0,1-2.18,1l-1.54.23a25.53,25.53,0,0,0-8.32,2.22,31,31,0,0,0-6.87,5.58l-.46.5.61.29c.1,0,10.29,4.9,12.8,7.81.66.77,1.22,1.51,1.75,2.23,1.47,2,2.64,3.54,4.69,3.54l.41,0c3-.3,6.26-3.45,9.34-6.65a37,37,0,0,0,2.42-2.82c1.39-1.75,2.23-2.8,4.14-3.05a7.84,7.84,0,0,1,1-.07,5.25,5.25,0,0,1,3.84,1.4,4.77,4.77,0,0,1,1.17,3.62c-.15,4.39-7.32,11.38-11.6,15.56l-.13.13c-1.59,1.55-3,2.71-4.07,3.65-2,1.68-3.31,2.79-3.87,4.44s1.29,5.55,4.22,11.21c1.05,2,2,4,2.67,5.42,2,4.82,9.29,14.85,15.58,20.55a87.12,87.12,0,0,0,14.81,10.31l.38.2.26-.34c5.52-7.23,14-18.2,14.86-18.81l.17-.12a3,3,0,0,1,1.54-.73c1.08,0,2,1.76,2.76,5.08,1.43,6.56,2.16,15.94-2.52,23.33-4.45,7-15.77,14.09-23.7,16.59-8.18,2.58-40.82,10.16-47.85,11.11a167.43,167.43,0,0,1-22.41,1.64,91.42,91.42,0,0,1-25-3c-15.7-4.52-40-9.79-56.86-9.79l-1.63,0a134.05,134.05,0,0,0-25.62,3.1c-2.12.43-4,.8-5.46,1a6,6,0,0,1-.81.06,4,4,0,0,1-3.35-1.62,8.22,8.22,0,0,1-1.05-6.46,8.1,8.1,0,0,1,1.15-2.39c.61-.93,1.13-1.74.13-3.22a1.28,1.28,0,0,0-1.14-.53c-3.12,0-12.49,7.45-18.78,14.12a109.78,109.78,0,0,0-7.89,10.13c-6,8.32-12.85,17.75-20.79,22.15C547.9,416.17,541.84,417.29,538.54,417.55Z" transform="translate(-454 -103)" fill="#fff"/>
    <path d="M604.25,190.06c2.24,0,5.32,1.16,9.39,10.22,4.69,10.45,17.1,35.43,30.93,41.66,6.94,3.13,15.39,5.71,23.56,8.2,7.39,2.26,14.37,4.39,19.31,6.66,2.89,1.33,5.93,2.7,8.86,4,7.09,3.2,14.43,6.52,15.52,7.46a5.91,5.91,0,0,0,3.47,1.64c.23,0,2.73.24,5.51.24a19.81,19.81,0,0,0,6.43-.75,31.7,31.7,0,0,0,5.7-3.8c3.94-3,9.34-7,13.77-8.17a19.08,19.08,0,0,1,4.77-.65c4.15,0,6.64,1.65,7,3.27s.31,2.53,0,3a2.74,2.74,0,0,1-1.85.8l-1.53.23a25.94,25.94,0,0,0-8.48,2.27,31.54,31.54,0,0,0-7,5.68l-.92,1,1.23.58c2.83,1.34,10.61,5.33,12.64,7.68.65.75,1.2,1.49,1.73,2.2,1.5,2,2.79,3.73,5.09,3.73l.46,0c3.17-.32,6.5-3.54,9.65-6.8a37.52,37.52,0,0,0,2.45-2.85c1.36-1.71,2.1-2.64,3.81-2.87a7.4,7.4,0,0,1,.95-.06,4.9,4.9,0,0,1,3.48,1.24,4.29,4.29,0,0,1,1,3.26c-.14,4.19-7.5,11.36-11.46,15.22l-.13.13c-1.57,1.54-2.94,2.69-4,3.62-2.05,1.74-3.41,2.88-4,4.66s1.17,5.65,4.25,11.6c1,2,2,3.94,2.65,5.39,2.06,4.87,9.37,15,15.71,20.73A85.85,85.85,0,0,0,799,350.87l.75.4.52-.68c5.2-6.81,13.82-17.92,14.76-18.7l.17-.13a2.69,2.69,0,0,1,1.25-.63c.6,0,1.52,1.23,2.27,4.69,2.56,11.73.08,19-2.46,23-4.39,6.94-15.58,13.9-23.43,16.38-8.17,2.58-40.76,10.15-47.76,11.09a166.76,166.76,0,0,1-22.34,1.63,90.93,90.93,0,0,1-24.87-3c-15.73-4.53-40.1-9.81-57-9.81l-1.65,0a134.53,134.53,0,0,0-25.71,3.11c-2.11.43-3.94.8-5.42,1a5.68,5.68,0,0,1-.74.05,3.47,3.47,0,0,1-2.95-1.42,7.66,7.66,0,0,1-1-6,7.54,7.54,0,0,1,1.09-2.25,2.89,2.89,0,0,0,.12-3.78,1.78,1.78,0,0,0-1.55-.75c-3.65,0-13.64,8.44-19.14,14.27A110,110,0,0,0,576,389.46c-6,8.28-12.78,17.66-20.63,22a46.49,46.49,0,0,1-13.21,5.06c5.42-2.47,13.18-6.6,17.54-11.57,3.13-3.56,7.5-9.25,11.73-14.75,5.14-6.69,10.46-13.61,13.4-16.5,2.45-2.42,4.67-4.27,6.46-5.75,2.58-2.15,3.76-3.13,3.74-4.24,0-1.27-1.4-1.57-2.85-1.88s-3.33-.72-4.13-1.87c-.88-1.76,3.75-15.2,7.14-25,1.72-5,3.5-10.14,5-14.94,5.18-16.17,6.57-27.3.5-46.83l-.84-2.7c-5.39-17.28-9.64-30.93-8.63-49.09,1.08-19.38,10.19-31,11.85-31.25a11.47,11.47,0,0,1,1.16-.07m0-1a12.37,12.37,0,0,0-1.25.08c-2.64.27-11.67,12.9-12.75,32.19s3.73,33.55,9.51,52.15,4.91,29.34-.5,46.23-13.82,38.24-12.05,40.82,6.78,2.07,6.81,3.22-4.49,3.92-9.9,9.26-18.25,23.42-25.18,31.31-23.12,13.78-23.12,13.78.35,0,1,0c2.53,0,9.56-.55,19-5.78,11.94-6.62,21.58-24.73,28.8-32.38,6.46-6.84,15.59-14,18.42-14a.81.81,0,0,1,.72.31c1.36,2-.49,2.18-1.34,5.2-.8,2.85,0,8.72,4.88,8.72a6.66,6.66,0,0,0,.87-.06c5.61-.74,15.25-3.75,31-4.1l1.62,0c15.78,0,39.05,4.69,56.73,9.77,8.14,2.34,17.1,3.07,25.15,3.07a167.82,167.82,0,0,0,22.48-1.64c6.89-.93,39.67-8.52,47.93-11.13s19.53-9.78,24-16.8,4.24-16.14,2.59-23.7c-1-4.37-2.17-5.48-3.25-5.48a3.75,3.75,0,0,0-2,.94c-1.16.83-15,18.91-15,18.91a85.85,85.85,0,0,1-14.71-10.24c-6.35-5.75-13.48-15.69-15.46-20.38s-7.7-13.88-6.88-16.27,3.45-3.63,7.82-7.89,11.73-11.39,11.89-16c.14-4.1-2.73-5.53-5.51-5.53a8.39,8.39,0,0,0-1.08.07c-3.07.4-3.64,2.67-6.85,6s-6.3,6.23-9,6.5l-.36,0c-2.47,0-3.57-2.7-6.06-5.59s-13-7.93-13-7.93a30.92,30.92,0,0,1,6.73-5.47c3.21-1.65,6.65-1.91,9.7-2.4s3.26-2,2.7-5c-.42-2.22-3.4-4.08-7.93-4.08a20.07,20.07,0,0,0-5,.68c-7.27,1.89-16.41,10.8-19.57,12a19.79,19.79,0,0,1-6.07.68c-2.84,0-5.43-.24-5.43-.24h0a4.81,4.81,0,0,1-2.88-1.4c-1.65-1.43-14.19-6.83-24.62-11.64S658.2,247,645,241s-25.39-29.95-30.43-41.16c-4.29-9.55-7.74-10.81-10.3-10.81Z" transform="translate(-454 -103)"/>
  </g>
</svg>
